<svg version="1.1" viewBox="0.0 0.0 605.0 371.0" fill="none" stroke="none" stroke-linecap="square" stroke-miterlimit="10" width="605" height="371" xmlns:xlink="http://www.w3.org/1999/xlink" xmlns="http://www.w3.org/2000/svg"><path fill="#ffffff" d="M0 0L605.0 0L605.0 371.0L0 371.0L0 0Z" fill-rule="nonzero"/><path stroke="#cccccc" stroke-width="1.0" stroke-linecap="butt" d="M105.5 61.5L105.5 300.5" fill-rule="nonzero"/><path stroke="#cccccc" stroke-width="1.0" stroke-linecap="butt" d="M265.5 61.5L265.5 300.5" fill-rule="nonzero"/><path stroke="#cccccc" stroke-width="1.0" stroke-linecap="butt" d="M426.5 61.5L426.5 300.5" fill-rule="nonzero"/><path stroke="#cccccc" stroke-width="1.0" stroke-linecap="butt" d="M586.5 61.5L586.5 300.5" fill-rule="nonzero"/><path stroke="#cccccc" stroke-width="1.0" stroke-linecap="butt" d="M105.5 282.5L586.5 282.5" fill-rule="nonzero"/><path stroke="#cccccc" stroke-width="1.0" stroke-linecap="butt" d="M105.5 245.5L586.5 245.5" fill-rule="nonzero"/><path stroke="#cccccc" stroke-width="1.0" stroke-linecap="butt" d="M105.5 208.5L586.5 208.5" fill-rule="nonzero"/><path stroke="#cccccc" stroke-width="1.0" stroke-linecap="butt" d="M105.5 172.5L586.5 172.5" fill-rule="nonzero"/><path stroke="#cccccc" stroke-width="1.0" stroke-linecap="butt" d="M105.5 135.5L586.5 135.5" fill-rule="nonzero"/><path stroke="#cccccc" stroke-width="1.0" stroke-linecap="butt" d="M105.5 98.5L586.5 98.5" fill-rule="nonzero"/><path stroke="#cccccc" stroke-width="1.0" stroke-linecap="butt" d="M105.5 61.5L586.5 61.5" fill-rule="nonzero"/><clipPath id="id_0"><path d="M105.55 61.916668L586.45 61.916668L586.45 300.45L105.55 300.45L105.55 61.916668Z" clip-rule="nonzero"/></clipPath><path stroke="#4285f4" stroke-width="2.0" stroke-linecap="butt" clip-path="url(#id_0)" d="M105.55 78.59767L185.7 148.48213L265.85 223.87466L346.0 263.28537L426.15 264.04306L506.3 267.80127L586.45 268.53857" fill-rule="nonzero"/><path fill="#000000" fill-opacity="0.0" clip-path="url(#id_0)" d="M108.55 78.59767C108.55 80.254524 107.206856 81.59767 105.55 81.59767C103.89314 81.59767 102.55 80.254524 102.55 78.59767C102.55 76.94082 103.89314 75.59767 105.55 75.59767C107.206856 75.59767 108.55 76.94082 108.55 78.59767Z" fill-rule="nonzero"/><path fill="#000000" fill-opacity="0.0" clip-path="url(#id_0)" d="M188.7 148.48213C188.7 150.13899 187.35686 151.48213 185.7 151.48213C184.04315 151.48213 182.7 150.13899 182.7 148.48213C182.7 146.82529 184.04315 145.48213 185.7 145.48213C187.35686 145.48213 188.7 146.82529 188.7 148.48213Z" fill-rule="nonzero"/><path fill="#000000" fill-opacity="0.0" clip-path="url(#id_0)" d="M268.85 223.87466C268.85 225.53152 267.50687 226.87466 265.85 226.87466C264.19315 226.87466 262.85 225.53152 262.85 223.87466C262.85 222.21782 264.19315 220.87466 265.85 220.87466C267.50687 220.87466 268.85 222.21782 268.85 223.87466Z" fill-rule="nonzero"/><path fill="#000000" fill-opacity="0.0" clip-path="url(#id_0)" d="M349.0 263.28537C349.0 264.94223 347.65686 266.28537 346.0 266.28537C344.34314 266.28537 343.0 264.94223 343.0 263.28537C343.0 261.6285 344.34314 260.28537 346.0 260.28537C347.65686 260.28537 349.0 261.6285 349.0 263.28537Z" fill-rule="nonzero"/><path fill="#000000" fill-opacity="0.0" clip-path="url(#id_0)" d="M429.15 264.04306C429.15 265.69992 427.80685 267.04306 426.15 267.04306C424.49313 267.04306 423.15 265.69992 423.15 264.04306C423.15 262.3862 424.49313 261.04306 426.15 261.04306C427.80685 261.04306 429.15 262.3862 429.15 264.04306Z" fill-rule="nonzero"/><path fill="#000000" fill-opacity="0.0" clip-path="url(#id_0)" d="M509.3 267.80127C509.3 269.45813 507.95685 270.80127 506.3 270.80127C504.64316 270.80127 503.3 269.45813 503.3 267.80127C503.3 266.14444 504.64316 264.80127 506.3 264.80127C507.95685 264.80127 509.3 266.14444 509.3 267.80127Z" fill-rule="nonzero"/><path fill="#000000" fill-opacity="0.0" clip-path="url(#id_0)" d="M589.45 268.53857C589.45 270.19543 588.1069 271.53857 586.45 271.53857C584.79315 271.53857 583.45 270.19543 583.45 268.53857C583.45 266.8817 584.79315 265.53857 586.45 265.53857C588.1069 265.53857 589.45 266.8817 589.45 268.53857Z" fill-rule="nonzero"/><path fill="#000000" d="M343.79688 349.45L343.79688 340.85626L344.85938 340.85626L344.85938 345.7625L347.34375 343.23126L348.71875 343.23126L346.32812 345.52814L348.95312 349.45L347.65625 349.45L345.59375 346.2625L344.85938 346.98126L344.85938 349.45L343.79688 349.45Z" fill-rule="nonzero"/><path fill="#000000" d="M27.690638 237.80833L27.534388 236.77708Q28.159388 236.68333 28.487513 236.29271Q28.815638 235.88646 28.815638 235.15208Q28.815638 234.43333 28.534388 234.08958Q28.237513 233.73021 27.831263 233.73021Q27.471888 233.73021 27.268763 234.04271Q27.128138 234.26146 26.909388 235.12083Q26.612513 236.27708 26.409388 236.73021Q26.190638 237.16771 25.815638 237.40208Q25.440638 237.63646 24.971888 237.63646Q24.565638 237.63646 24.206263 237.44896Q23.846888 237.26146 23.612513 236.93333Q23.440638 236.68333 23.315638 236.26146Q23.190638 235.83958 23.190638 235.33958Q23.190638 234.62083 23.409388 234.07396Q23.612513 233.51146 23.971888 233.24583Q24.331263 232.98021 24.925013 232.88646L25.065638 233.91771Q24.596888 233.98021 24.331263 234.32396Q24.050013 234.65208 24.050013 235.27708Q24.050013 235.99583 24.300013 236.30833Q24.534388 236.62083 24.862513 236.62083Q25.065638 236.62083 25.221888 236.49583Q25.393763 236.35521 25.503138 236.08958Q25.565638 235.93333 25.768763 235.15208Q26.081263 234.02708 26.268763 233.58958Q26.456263 233.15208 26.815638 232.90208Q27.175013 232.65208 27.721888 232.65208Q28.253138 232.65208 28.721888 232.96458Q29.175013 233.26146 29.440638 233.83958Q29.690638 234.41771 29.690638 235.15208Q29.690638 236.37083 29.190638 237.01146Q28.675013 237.63646 27.690638 237.80833ZM28.612513 229.08958L29.534388 228.93333Q29.628138 229.38646 29.628138 229.73021Q29.628138 230.30833 29.456263 230.62083Q29.268763 230.93333 28.971888 231.07396Q28.675013 231.19896 27.721888 231.19896L24.143763 231.19896L24.143763 231.96458L23.331263 231.96458L23.331263 231.19896L21.784388 231.19896L21.159388 230.15208L23.331263 230.15208L23.331263 229.08958L24.143763 229.08958L24.143763 230.15208L27.784388 230.15208Q28.237513 230.15208 28.362513 230.10521Q28.487513 230.04271 28.565638 229.91771Q28.643763 229.79271 28.643763 229.55833Q28.643763 229.37083 28.612513 229.08958ZM28.784388 224.32396Q29.284388 224.91771 29.487513 225.46458Q29.690638 225.99583 29.690638 226.62083Q29.690638 227.65208 29.190638 228.19896Q28.690638 228.74583 27.909388 228.74583Q27.456263 228.74583 27.081263 228.54271Q26.690638 228.33958 26.471888 227.99583Q26.237513 227.65208 26.128138 227.23021Q26.034388 226.93333 25.956263 226.29271Q25.815638 225.02708 25.596888 224.41771Q25.378138 224.41771 25.331263 224.41771Q24.675013 224.41771 24.409388 224.71458Q24.065638 225.12083 24.065638 225.91771Q24.065638 226.65208 24.331263 227.01146Q24.581263 227.37083 25.237513 227.54271L25.096888 228.57396Q24.440638 228.43333 24.034388 228.10521Q23.628138 227.77708 23.409388 227.16771Q23.190638 226.55833 23.190638 225.76146Q23.190638 224.96458 23.378138 224.46458Q23.565638 223.96458 23.846888 223.73021Q24.128138 223.49583 24.565638 223.40208Q24.831263 223.35521 25.534388 223.35521L26.940638 223.35521Q28.409388 223.35521 28.800013 223.29271Q29.190638 223.21458 29.550013 223.01146L29.550013 224.12083Q29.221888 224.27708 28.784388 224.32396ZM26.425013 224.41771Q26.659388 224.99583 26.831263 226.13646Q26.925013 226.79271 27.050013 227.05833Q27.159388 227.32396 27.378138 227.48021Q27.596888 227.62083 27.878138 227.62083Q28.300013 227.62083 28.581263 227.30833Q28.862513 226.98021 28.862513 226.37083Q28.862513 225.76146 28.596888 225.29271Q28.331263 224.80833 27.862513 224.58958Q27.503138 224.41771 26.815638 224.41771L26.425013 224.41771ZM29.550013 221.38646L23.331263 221.38646L23.331263 220.44896L24.206263 220.44896Q23.190638 219.76146 23.190638 218.46458Q23.190638 217.90208 23.393763 217.43333Q23.596888 216.94896 23.925013 216.71458Q24.253138 216.48021 24.690638 216.38646Q24.987513 216.33958 25.721888 216.33958L29.550013 216.33958L29.550013 217.38646L25.768763 217.38646Q25.112513 217.38646 24.800013 217.51146Q24.487513 217.63646 24.300013 217.94896Q24.096888 218.26146 24.096888 218.68333Q24.096888 219.35521 24.534388 219.85521Q24.956263 220.33958 26.143763 220.33958L29.550013 220.33958L29.550013 221.38646ZM29.550013 210.35521L28.768763 210.35521Q29.690638 210.94896 29.690638 212.08958Q29.690638 212.83958 29.284388 213.46458Q28.862513 214.08958 28.128138 214.43333Q27.393763 214.77708 26.440638 214.77708Q25.518763 214.77708 24.753138 214.46458Q23.987513 214.15208 23.596888 213.52708Q23.190638 212.90208 23.190638 212.13646Q23.190638 211.57396 23.425013 211.13646Q23.659388 210.69896 24.034388 210.41771L20.956263 210.41771L20.956263 209.37083L29.550013 209.37083L29.550013 210.35521ZM26.440638 213.68333Q27.643763 213.68333 28.237513 213.18333Q28.815638 212.68333 28.815638 211.99583Q28.815638 211.30833 28.253138 210.82396Q27.690638 210.33958 26.534388 210.33958Q25.253138 210.33958 24.659388 210.83958Q24.065638 211.32396 24.065638 212.04271Q24.065638 212.74583 24.643763 213.21458Q25.206263 213.68333 26.440638 213.68333ZM28.784388 203.32396Q29.284388 203.91771 29.487513 204.46458Q29.690638 204.99583 29.690638 205.62083Q29.690638 206.65208 29.190638 207.19896Q28.690638 207.74583 27.909388 207.74583Q27.456263 207.74583 27.081263 207.54271Q26.690638 207.33958 26.471888 206.99583Q26.237513 206.65208 26.128138 206.23021Q26.034388 205.93333 25.956263 205.29271Q25.815638 204.02708 25.596888 203.41771Q25.378138 203.41771 25.331263 203.41771Q24.675013 203.41771 24.409388 203.71458Q24.065638 204.12083 24.065638 204.91771Q24.065638 205.65208 24.331263 206.01146Q24.581263 206.37083 25.237513 206.54271L25.096888 207.57396Q24.440638 207.43333 24.034388 207.10521Q23.628138 206.77708 23.409388 206.16771Q23.190638 205.55833 23.190638 204.76146Q23.190638 203.96458 23.378138 203.46458Q23.565638 202.96458 23.846888 202.73021Q24.128138 202.49583 24.565638 202.40208Q24.831263 202.35521 25.534388 202.35521L26.940638 202.35521Q28.409388 202.35521 28.800013 202.29271Q29.190638 202.21458 29.550013 202.01146L29.550013 203.12083Q29.221888 203.27708 28.784388 203.32396ZM26.425013 203.41771Q26.659388 203.99583 26.831263 205.13646Q26.925013 205.79271 27.050013 206.05833Q27.159388 206.32396 27.378138 206.48021Q27.596888 206.62083 27.878138 206.62083Q28.300013 206.62083 28.581263 206.30833Q28.862513 205.98021 28.862513 205.37083Q28.862513 204.76146 28.596888 204.29271Q28.331263 203.80833 27.862513 203.58958Q27.503138 203.41771 26.815638 203.41771L26.425013 203.41771ZM29.550013 200.40208L23.331263 200.40208L23.331263 199.44896L24.268763 199.44896Q23.612513 199.08958 23.409388 198.79271Q23.190638 198.48021 23.190638 198.10521Q23.190638 197.57396 23.518763 197.02708L24.503138 197.38646Q24.268763 197.77708 24.268763 198.15208Q24.268763 198.51146 24.487513 198.79271Q24.690638 199.05833 25.065638 199.16771Q25.628138 199.35521 26.284388 199.35521L29.550013 199.35521L29.550013 200.40208ZM29.550013 192.35521L28.768763 192.35521Q29.690638 192.94896 29.690638 194.08958Q29.690638 194.83958 29.284388 195.46458Q28.862513 196.08958 28.128138 196.43333Q27.393763 196.77708 26.440638 196.77708Q25.518763 196.77708 24.753138 196.46458Q23.987513 196.15208 23.596888 195.52708Q23.190638 194.90208 23.190638 194.13646Q23.190638 193.57396 23.425013 193.13646Q23.659388 192.69896 24.034388 192.41771L20.956263 192.41771L20.956263 191.37083L29.550013 191.37083L29.550013 192.35521ZM26.440638 195.68333Q27.643763 195.68333 28.237513 195.18333Q28.815638 194.68333 28.815638 193.99583Q28.815638 193.30833 28.253138 192.82396Q27.690638 192.33958 26.534388 192.33958Q25.253138 192.33958 24.659388 192.83958Q24.065638 193.32396 24.065638 194.04271Q24.065638 194.74583 24.643763 195.21458Q25.206263 195.68333 26.440638 195.68333ZM29.550013 182.35521L28.768763 182.35521Q29.690638 182.94896 29.690638 184.08958Q29.690638 184.83958 29.284388 185.46458Q28.862513 186.08958 28.128138 186.43333Q27.393763 186.77708 26.440638 186.77708Q25.518763 186.77708 24.753138 186.46458Q23.987513 186.15208 23.596888 185.52708Q23.190638 184.90208 23.190638 184.13646Q23.190638 183.57396 23.425013 183.13646Q23.659388 182.69896 24.034388 182.41771L20.956263 182.41771L20.956263 181.37083L29.550013 181.37083L29.550013 182.35521ZM26.440638 185.68333Q27.643763 185.68333 28.237513 185.18333Q28.815638 184.68333 28.815638 183.99583Q28.815638 183.30833 28.253138 182.82396Q27.690638 182.33958 26.534388 182.33958Q25.253138 182.33958 24.659388 182.83958Q24.065638 183.32396 24.065638 184.04271Q24.065638 184.74583 24.643763 185.21458Q25.206263 185.68333 26.440638 185.68333ZM27.550013 175.13646L27.675013 174.04271Q28.628138 174.29271 29.159388 174.99583Q29.690638 175.69896 29.690638 176.77708Q29.690638 178.13646 28.846888 178.94896Q28.003138 179.74583 26.487513 179.74583Q24.925013 179.74583 24.065638 178.93333Q23.190638 178.12083 23.190638 176.83958Q23.190638 175.58958 24.034388 174.80833Q24.878138 174.01146 26.425013 174.01146Q26.518763 174.01146 26.706263 174.01146L26.706263 178.65208Q27.737513 178.58958 28.284388 178.07396Q28.815638 177.55833 28.815638 176.77708Q28.815638 176.19896 28.518763 175.79271Q28.206263 175.37083 27.550013 175.13646ZM25.846888 178.58958L25.846888 175.12083Q25.050013 175.18333 24.659388 175.51146Q24.050013 176.02708 24.050013 176.82396Q24.050013 177.55833 24.534388 178.05833Q25.018763 178.54271 25.846888 178.58958ZM29.550013 170.66771L23.331263 173.02708L23.331263 171.91771L27.050013 170.57396Q27.659388 170.37083 28.300013 170.18333Q27.815638 170.04271 27.128138 169.79271L23.331263 168.40208L23.331263 167.32396L29.550013 169.68333L29.550013 170.66771ZM22.175013 166.38646L20.956263 166.38646L20.956263 165.32396L22.175013 165.32396L22.175013 166.38646ZM29.550013 166.38646L23.331263 166.38646L23.331263 165.32396L29.550013 165.32396L29.550013 166.38646ZM28.784388 159.32396Q29.284388 159.91771 29.487513 160.46458Q29.690638 160.99583 29.690638 161.62083Q29.690638 162.65208 29.190638 163.19896Q28.690638 163.74583 27.909388 163.74583Q27.456263 163.74583 27.081263 163.54271Q26.690638 163.33958 26.471888 162.99583Q26.237513 162.65208 26.128138 162.23021Q26.034388 161.93333 25.956263 161.29271Q25.815638 160.02708 25.596888 159.41771Q25.378138 159.41771 25.331263 159.41771Q24.675013 159.41771 24.409388 159.71458Q24.065638 160.12083 24.065638 160.91771Q24.065638 161.65208 24.331263 162.01146Q24.581263 162.37083 25.237513 162.54271L25.096888 163.57396Q24.440638 163.43333 24.034388 163.10521Q23.628138 162.77708 23.409388 162.16771Q23.190638 161.55833 23.190638 160.76146Q23.190638 159.96458 23.378138 159.46458Q23.565638 158.96458 23.846888 158.73021Q24.128138 158.49583 24.565638 158.40208Q24.831263 158.35521 25.534388 158.35521L26.940638 158.35521Q28.409388 158.35521 28.800013 158.29271Q29.190638 158.21458 29.550013 158.01146L29.550013 159.12083Q29.221888 159.27708 28.784388 159.32396ZM26.425013 159.41771Q26.659388 159.99583 26.831263 161.13646Q26.925013 161.79271 27.050013 162.05833Q27.159388 162.32396 27.378138 162.48021Q27.596888 162.62083 27.878138 162.62083Q28.300013 162.62083 28.581263 162.30833Q28.862513 161.98021 28.862513 161.37083Q28.862513 160.76146 28.596888 160.29271Q28.331263 159.80833 27.862513 159.58958Q27.503138 159.41771 26.815638 159.41771L26.425013 159.41771ZM28.612513 154.08958L29.534388 153.93333Q29.628138 154.38646 29.628138 154.73021Q29.628138 155.30833 29.456263 155.62083Q29.268763 155.93333 28.971888 156.07396Q28.675013 156.19896 27.721888 156.19896L24.143763 156.19896L24.143763 156.96458L23.331263 156.96458L23.331263 156.19896L21.784388 156.19896L21.159388 155.15208L23.331263 155.15208L23.331263 154.08958L24.143763 154.08958L24.143763 155.15208L27.784388 155.15208Q28.237513 155.15208 28.362513 155.10521Q28.487513 155.04271 28.565638 154.91771Q28.643763 154.79271 28.643763 154.55833Q28.643763 154.37083 28.612513 154.08958ZM22.175013 153.38646L20.956263 153.38646L20.956263 152.32396L22.175013 152.32396L22.175013 153.38646ZM29.550013 153.38646L23.331263 153.38646L23.331263 152.32396L29.550013 152.32396L29.550013 153.38646ZM26.440638 150.77708Q24.706263 150.77708 23.878138 149.82396Q23.190638 149.02708 23.190638 147.87083Q23.190638 146.58958 24.034388 145.77708Q24.862513 144.94896 26.346888 144.94896Q27.550013 144.94896 28.237513 145.30833Q28.925013 145.66771 29.315638 146.37083Q29.690638 147.05833 29.690638 147.87083Q29.690638 149.16771 28.862513 149.98021Q28.018763 150.77708 26.440638 150.77708ZM26.440638 149.69896Q27.628138 149.69896 28.221888 149.18333Q28.815638 148.65208 28.815638 147.87083Q28.815638 147.07396 28.221888 146.55833Q27.628138 146.04271 26.409388 146.04271Q25.253138 146.04271 24.659388 146.57396Q24.065638 147.08958 24.065638 147.87083Q24.065638 148.65208 24.659388 149.18333Q25.237513 149.69896 26.440638 149.69896ZM29.550013 143.38646L23.331263 143.38646L23.331263 142.44896L24.206263 142.44896Q23.190638 141.76146 23.190638 140.46458Q23.190638 139.90208 23.393763 139.43333Q23.596888 138.94896 23.925013 138.71458Q24.253138 138.48021 24.690638 138.38646Q24.987513 138.33958 25.721888 138.33958L29.550013 138.33958L29.550013 139.38646L25.768763 139.38646Q25.112513 139.38646 24.800013 139.51146Q24.487513 139.63646 24.300013 139.94896Q24.096888 140.26146 24.096888 140.68333Q24.096888 141.35521 24.534388 141.85521Q24.956263 142.33958 26.143763 142.33958L29.550013 142.33958L29.550013 143.38646Z" fill-rule="nonzero"/><path fill="#000000" d="M51.05 283.83566L52.1125 283.69504Q52.284374 284.58566 52.721874 284.9919Q53.159374 285.38254 53.784374 285.38254Q54.534374 285.38254 55.05 284.8669Q55.565624 284.3513 55.565624 283.58566Q55.565624 282.8669 55.08125 282.39816Q54.6125 281.9138 53.878124 281.9138Q53.58125 281.9138 53.128124 282.0388L53.253124 281.1013Q53.3625 281.1169 53.425 281.1169Q54.096874 281.1169 54.628124 280.77316Q55.175 280.4138 55.175 279.6794Q55.175 279.1013 54.784374 278.7263Q54.39375 278.33566 53.76875 278.33566Q53.159374 278.33566 52.7375 278.7263Q52.33125 279.1169 52.221874 279.88254L51.159374 279.69504Q51.346874 278.64816 52.034374 278.07004Q52.721874 277.4763 53.7375 277.4763Q54.440624 277.4763 55.034374 277.7888Q55.628124 278.08566 55.940624 278.6013Q56.253124 279.1169 56.253124 279.71066Q56.253124 280.25754 55.95625 280.7263Q55.659374 281.1794 55.08125 281.44504Q55.83125 281.6169 56.253124 282.1794Q56.675 282.7263 56.675 283.57004Q56.675 284.69504 55.846874 285.4763Q55.034374 286.25754 53.784374 286.25754Q52.659374 286.25754 51.909374 285.58566Q51.159374 284.89816 51.05 283.83566ZM58.05 281.8669Q58.05 280.33566 58.3625 279.4138Q58.675 278.4763 59.284374 277.9763Q59.909374 277.4763 60.846874 277.4763Q61.534374 277.4763 62.05 277.75754Q62.58125 278.0388 62.925 278.57004Q63.26875 279.08566 63.45625 279.83566Q63.64375 280.58566 63.64375 281.8669Q63.64375 283.38254 63.33125 284.3044Q63.034374 285.2263 62.409374 285.7419Q61.8 286.2419 60.846874 286.2419Q59.6125 286.2419 58.89375 285.3513Q58.05 284.2888 58.05 281.8669ZM59.128124 281.8669Q59.128124 283.9763 59.628124 284.6794Q60.128124 285.38254 60.846874 285.38254Q61.58125 285.38254 62.065624 284.6794Q62.565624 283.9763 62.565624 281.8669Q62.565624 279.7419 62.065624 279.0544Q61.58125 278.3513 60.83125 278.3513Q60.1125 278.3513 59.675 278.96066Q59.128124 279.7419 59.128124 281.8669ZM65.05 281.8669Q65.05 280.33566 65.3625 279.4138Q65.675 278.4763 66.28438 277.9763Q66.90938 277.4763 67.84688 277.4763Q68.53438 277.4763 69.05 277.75754Q69.58125 278.0388 69.925 278.57004Q70.26875 279.08566 70.45625 279.83566Q70.64375 280.58566 70.64375 281.8669Q70.64375 283.38254 70.33125 284.3044Q70.03438 285.2263 69.40938 285.7419Q68.8 286.2419 67.84688 286.2419Q66.6125 286.2419 65.89375 285.3513Q65.05 284.2888 65.05 281.8669ZM66.12813 281.8669Q66.12813 283.9763 66.62813 284.6794Q67.12813 285.38254 67.84688 285.38254Q68.58125 285.38254 69.06563 284.6794Q69.56563 283.9763 69.56563 281.8669Q69.56563 279.7419 69.06563 279.0544Q68.58125 278.3513 67.83125 278.3513Q67.1125 278.3513 66.675 278.96066Q66.12813 279.7419 66.12813 281.8669ZM72.05 281.8669Q72.05 280.33566 72.3625 279.4138Q72.675 278.4763 73.28438 277.9763Q73.90938 277.4763 74.84688 277.4763Q75.53438 277.4763 76.05 277.75754Q76.58125 278.0388 76.925 278.57004Q77.26875 279.08566 77.45625 279.83566Q77.64375 280.58566 77.64375 281.8669Q77.64375 283.38254 77.33125 284.3044Q77.03438 285.2263 76.40938 285.7419Q75.8 286.2419 74.84688 286.2419Q73.6125 286.2419 72.89375 285.3513Q72.05 284.2888 72.05 281.8669ZM73.12813 281.8669Q73.12813 283.9763 73.62813 284.6794Q74.12813 285.38254 74.84688 285.38254Q75.58125 285.38254 76.06563 284.6794Q76.56563 283.9763 76.56563 281.8669Q76.56563 279.7419 76.06563 279.0544Q75.58125 278.3513 74.83125 278.3513Q74.1125 278.3513 73.675 278.96066Q73.12813 279.7419 73.12813 281.8669ZM79.05 281.8669Q79.05 280.33566 79.3625 279.4138Q79.675 278.4763 80.28438 277.9763Q80.90938 277.4763 81.84688 277.4763Q82.53438 277.4763 83.05 277.75754Q83.58125 278.0388 83.925 278.57004Q84.26875 279.08566 84.45625 279.83566Q84.64375 280.58566 84.64375 281.8669Q84.64375 283.38254 84.33125 284.3044Q84.03438 285.2263 83.40938 285.7419Q82.8 286.2419 81.84688 286.2419Q80.6125 286.2419 79.89375 285.3513Q79.05 284.2888 79.05 281.8669ZM80.12813 281.8669Q80.12813 283.9763 80.62813 284.6794Q81.12813 285.38254 81.84688 285.38254Q82.58125 285.38254 83.06563 284.6794Q83.56563 283.9763 83.56563 281.8669Q83.56563 279.7419 83.06563 279.0544Q82.58125 278.3513 81.83125 278.3513Q81.1125 278.3513 80.675 278.96066Q80.12813 279.7419 80.12813 281.8669ZM86.05 281.8669Q86.05 280.33566 86.3625 279.4138Q86.675 278.4763 87.28438 277.9763Q87.90938 277.4763 88.84688 277.4763Q89.53438 277.4763 90.05 277.75754Q90.58125 278.0388 90.925 278.57004Q91.26875 279.08566 91.45625 279.83566Q91.64375 280.58566 91.64375 281.8669Q91.64375 283.38254 91.33125 284.3044Q91.03438 285.2263 90.40938 285.7419Q89.8 286.2419 88.84688 286.2419Q87.6125 286.2419 86.89375 285.3513Q86.05 284.2888 86.05 281.8669ZM87.12813 281.8669Q87.12813 283.9763 87.62813 284.6794Q88.12813 285.38254 88.84688 285.38254Q89.58125 285.38254 90.06563 284.6794Q90.56563 283.9763 90.56563 281.8669Q90.56563 279.7419 90.06563 279.0544Q89.58125 278.3513 88.83125 278.3513Q88.1125 278.3513 87.675 278.96066Q87.12813 279.7419 87.12813 281.8669ZM93.05 281.8669Q93.05 280.33566 93.3625 279.4138Q93.675 278.4763 94.28438 277.9763Q94.90938 277.4763 95.84688 277.4763Q96.53438 277.4763 97.05 277.75754Q97.58125 278.0388 97.925 278.57004Q98.26875 279.08566 98.45625 279.83566Q98.64375 280.58566 98.64375 281.8669Q98.64375 283.38254 98.33125 284.3044Q98.03438 285.2263 97.40938 285.7419Q96.8 286.2419 95.84688 286.2419Q94.6125 286.2419 93.89375 285.3513Q93.05 284.2888 93.05 281.8669ZM94.12813 281.8669Q94.12813 283.9763 94.62813 284.6794Q95.12813 285.38254 95.84688 285.38254Q96.58125 285.38254 97.06563 284.6794Q97.56563 283.9763 97.56563 281.8669Q97.56563 279.7419 97.06563 279.0544Q96.58125 278.3513 95.83125 278.3513Q95.1125 278.3513 94.675 278.96066Q94.12813 279.7419 94.12813 281.8669Z" fill-rule="nonzero"/><path fill="#000000" d="M54.425 249.40384L54.425 247.34134L50.70625 247.34134L50.70625 246.37259L54.628124 240.81009L55.4875 240.81009L55.4875 246.37259L56.64375 246.37259L56.64375 247.34134L55.4875 247.34134L55.4875 249.40384L54.425 249.40384ZM54.425 246.37259L54.425 242.51321L51.7375 246.37259L54.425 246.37259ZM58.05 245.16946Q58.05 243.63821 58.3625 242.71634Q58.675 241.77884 59.284374 241.27884Q59.909374 240.77884 60.846874 240.77884Q61.534374 240.77884 62.05 241.06009Q62.58125 241.34134 62.925 241.87259Q63.26875 242.38821 63.45625 243.13821Q63.64375 243.88821 63.64375 245.16946Q63.64375 246.68509 63.33125 247.60696Q63.034374 248.52884 62.409374 249.04446Q61.8 249.54446 60.846874 249.54446Q59.6125 249.54446 58.89375 248.65384Q58.05 247.59134 58.05 245.16946ZM59.128124 245.16946Q59.128124 247.27884 59.628124 247.98196Q60.128124 248.68509 60.846874 248.68509Q61.58125 248.68509 62.065624 247.98196Q62.565624 247.27884 62.565624 245.16946Q62.565624 243.04446 62.065624 242.35696Q61.58125 241.65384 60.83125 241.65384Q60.1125 241.65384 59.675 242.26321Q59.128124 243.04446 59.128124 245.16946ZM65.05 245.16946Q65.05 243.63821 65.3625 242.71634Q65.675 241.77884 66.28438 241.27884Q66.90938 240.77884 67.84688 240.77884Q68.53438 240.77884 69.05 241.06009Q69.58125 241.34134 69.925 241.87259Q70.26875 242.38821 70.45625 243.13821Q70.64375 243.88821 70.64375 245.16946Q70.64375 246.68509 70.33125 247.60696Q70.03438 248.52884 69.40938 249.04446Q68.8 249.54446 67.84688 249.54446Q66.6125 249.54446 65.89375 248.65384Q65.05 247.59134 65.05 245.16946ZM66.12813 245.16946Q66.12813 247.27884 66.62813 247.98196Q67.12813 248.68509 67.84688 248.68509Q68.58125 248.68509 69.06563 247.98196Q69.56563 247.27884 69.56563 245.16946Q69.56563 243.04446 69.06563 242.35696Q68.58125 241.65384 67.83125 241.65384Q67.1125 241.65384 66.675 242.26321Q66.12813 243.04446 66.12813 245.16946ZM72.05 245.16946Q72.05 243.63821 72.3625 242.71634Q72.675 241.77884 73.28438 241.27884Q73.90938 240.77884 74.84688 240.77884Q75.53438 240.77884 76.05 241.06009Q76.58125 241.34134 76.925 241.87259Q77.26875 242.38821 77.45625 243.13821Q77.64375 243.88821 77.64375 245.16946Q77.64375 246.68509 77.33125 247.60696Q77.03438 248.52884 76.40938 249.04446Q75.8 249.54446 74.84688 249.54446Q73.6125 249.54446 72.89375 248.65384Q72.05 247.59134 72.05 245.16946ZM73.12813 245.16946Q73.12813 247.27884 73.62813 247.98196Q74.12813 248.68509 74.84688 248.68509Q75.58125 248.68509 76.06563 247.98196Q76.56563 247.27884 76.56563 245.16946Q76.56563 243.04446 76.06563 242.35696Q75.58125 241.65384 74.83125 241.65384Q74.1125 241.65384 73.675 242.26321Q73.12813 243.04446 73.12813 245.16946ZM79.05 245.16946Q79.05 243.63821 79.3625 242.71634Q79.675 241.77884 80.28438 241.27884Q80.90938 240.77884 81.84688 240.77884Q82.53438 240.77884 83.05 241.06009Q83.58125 241.34134 83.925 241.87259Q84.26875 242.38821 84.45625 243.13821Q84.64375 243.88821 84.64375 245.16946Q84.64375 246.68509 84.33125 247.60696Q84.03438 248.52884 83.40938 249.04446Q82.8 249.54446 81.84688 249.54446Q80.6125 249.54446 79.89375 248.65384Q79.05 247.59134 79.05 245.16946ZM80.12813 245.16946Q80.12813 247.27884 80.62813 247.98196Q81.12813 248.68509 81.84688 248.68509Q82.58125 248.68509 83.06563 247.98196Q83.56563 247.27884 83.56563 245.16946Q83.56563 243.04446 83.06563 242.35696Q82.58125 241.65384 81.83125 241.65384Q81.1125 241.65384 80.675 242.26321Q80.12813 243.04446 80.12813 245.16946ZM86.05 245.16946Q86.05 243.63821 86.3625 242.71634Q86.675 241.77884 87.28438 241.27884Q87.90938 240.77884 88.84688 240.77884Q89.53438 240.77884 90.05 241.06009Q90.58125 241.34134 90.925 241.87259Q91.26875 242.38821 91.45625 243.13821Q91.64375 243.88821 91.64375 245.16946Q91.64375 246.68509 91.33125 247.60696Q91.03438 248.52884 90.40938 249.04446Q89.8 249.54446 88.84688 249.54446Q87.6125 249.54446 86.89375 248.65384Q86.05 247.59134 86.05 245.16946ZM87.12813 245.16946Q87.12813 247.27884 87.62813 247.98196Q88.12813 248.68509 88.84688 248.68509Q89.58125 248.68509 90.06563 247.98196Q90.56563 247.27884 90.56563 245.16946Q90.56563 243.04446 90.06563 242.35696Q89.58125 241.65384 88.83125 241.65384Q88.1125 241.65384 87.675 242.26321Q87.12813 243.04446 87.12813 245.16946ZM93.05 245.16946Q93.05 243.63821 93.3625 242.71634Q93.675 241.77884 94.28438 241.27884Q94.90938 240.77884 95.84688 240.77884Q96.53438 240.77884 97.05 241.06009Q97.58125 241.34134 97.925 241.87259Q98.26875 242.38821 98.45625 243.13821Q98.64375 243.88821 98.64375 245.16946Q98.64375 246.68509 98.33125 247.60696Q98.03438 248.52884 97.40938 249.04446Q96.8 249.54446 95.84688 249.54446Q94.6125 249.54446 93.89375 248.65384Q93.05 247.59134 93.05 245.16946ZM94.12813 245.16946Q94.12813 247.27884 94.62813 247.98196Q95.12813 248.68509 95.84688 248.68509Q96.58125 248.68509 97.06563 247.98196Q97.56563 247.27884 97.56563 245.16946Q97.56563 243.04446 97.06563 242.35696Q96.58125 241.65384 95.83125 241.65384Q95.1125 241.65384 94.675 242.26321Q94.12813 243.04446 94.12813 245.16946Z" fill-rule="nonzero"/><path fill="#000000" d="M51.05 210.4564L52.159374 210.36266Q52.284374 211.17516 52.721874 211.5814Q53.175 211.98766 53.815624 211.98766Q54.565624 211.98766 55.096874 211.40953Q55.628124 210.8314 55.628124 209.8939Q55.628124 208.98766 55.1125 208.47203Q54.6125 207.94078 53.784374 207.94078Q53.284374 207.94078 52.8625 208.17516Q52.45625 208.40953 52.221874 208.7689L51.2375 208.6439L52.065624 204.23766L56.346874 204.23766L56.346874 205.23766L52.909374 205.23766L52.45625 207.55016Q53.221874 207.00328 54.065624 207.00328Q55.190624 207.00328 55.95625 207.78453Q56.7375 208.56578 56.7375 209.80016Q56.7375 210.9564 56.065624 211.81578Q55.2375 212.84703 53.815624 212.84703Q52.64375 212.84703 51.89375 212.19078Q51.159374 211.53453 51.05 210.4564ZM58.05 208.47203Q58.05 206.94078 58.3625 206.0189Q58.675 205.0814 59.284374 204.5814Q59.909374 204.0814 60.846874 204.0814Q61.534374 204.0814 62.05 204.36266Q62.58125 204.6439 62.925 205.17516Q63.26875 205.69078 63.45625 206.44078Q63.64375 207.19078 63.64375 208.47203Q63.64375 209.98766 63.33125 210.90953Q63.034374 211.8314 62.409374 212.34703Q61.8 212.84703 60.846874 212.84703Q59.6125 212.84703 58.89375 211.9564Q58.05 210.8939 58.05 208.47203ZM59.128124 208.47203Q59.128124 210.5814 59.628124 211.28453Q60.128124 211.98766 60.846874 211.98766Q61.58125 211.98766 62.065624 211.28453Q62.565624 210.5814 62.565624 208.47203Q62.565624 206.34703 62.065624 205.65953Q61.58125 204.9564 60.83125 204.9564Q60.1125 204.9564 59.675 205.56578Q59.128124 206.34703 59.128124 208.47203ZM65.05 208.47203Q65.05 206.94078 65.3625 206.0189Q65.675 205.0814 66.28438 204.5814Q66.90938 204.0814 67.84688 204.0814Q68.53438 204.0814 69.05 204.36266Q69.58125 204.6439 69.925 205.17516Q70.26875 205.69078 70.45625 206.44078Q70.64375 207.19078 70.64375 208.47203Q70.64375 209.98766 70.33125 210.90953Q70.03438 211.8314 69.40938 212.34703Q68.8 212.84703 67.84688 212.84703Q66.6125 212.84703 65.89375 211.9564Q65.05 210.8939 65.05 208.47203ZM66.12813 208.47203Q66.12813 210.5814 66.62813 211.28453Q67.12813 211.98766 67.84688 211.98766Q68.58125 211.98766 69.06563 211.28453Q69.56563 210.5814 69.56563 208.47203Q69.56563 206.34703 69.06563 205.65953Q68.58125 204.9564 67.83125 204.9564Q67.1125 204.9564 66.675 205.56578Q66.12813 206.34703 66.12813 208.47203ZM72.05 208.47203Q72.05 206.94078 72.3625 206.0189Q72.675 205.0814 73.28438 204.5814Q73.90938 204.0814 74.84688 204.0814Q75.53438 204.0814 76.05 204.36266Q76.58125 204.6439 76.925 205.17516Q77.26875 205.69078 77.45625 206.44078Q77.64375 207.19078 77.64375 208.47203Q77.64375 209.98766 77.33125 210.90953Q77.03438 211.8314 76.40938 212.34703Q75.8 212.84703 74.84688 212.84703Q73.6125 212.84703 72.89375 211.9564Q72.05 210.8939 72.05 208.47203ZM73.12813 208.47203Q73.12813 210.5814 73.62813 211.28453Q74.12813 211.98766 74.84688 211.98766Q75.58125 211.98766 76.06563 211.28453Q76.56563 210.5814 76.56563 208.47203Q76.56563 206.34703 76.06563 205.65953Q75.58125 204.9564 74.83125 204.9564Q74.1125 204.9564 73.675 205.56578Q73.12813 206.34703 73.12813 208.47203ZM79.05 208.47203Q79.05 206.94078 79.3625 206.0189Q79.675 205.0814 80.28438 204.5814Q80.90938 204.0814 81.84688 204.0814Q82.53438 204.0814 83.05 204.36266Q83.58125 204.6439 83.925 205.17516Q84.26875 205.69078 84.45625 206.44078Q84.64375 207.19078 84.64375 208.47203Q84.64375 209.98766 84.33125 210.90953Q84.03438 211.8314 83.40938 212.34703Q82.8 212.84703 81.84688 212.84703Q80.6125 212.84703 79.89375 211.9564Q79.05 210.8939 79.05 208.47203ZM80.12813 208.47203Q80.12813 210.5814 80.62813 211.28453Q81.12813 211.98766 81.84688 211.98766Q82.58125 211.98766 83.06563 211.28453Q83.56563 210.5814 83.56563 208.47203Q83.56563 206.34703 83.06563 205.65953Q82.58125 204.9564 81.83125 204.9564Q81.1125 204.9564 80.675 205.56578Q80.12813 206.34703 80.12813 208.47203ZM86.05 208.47203Q86.05 206.94078 86.3625 206.0189Q86.675 205.0814 87.28438 204.5814Q87.90938 204.0814 88.84688 204.0814Q89.53438 204.0814 90.05 204.36266Q90.58125 204.6439 90.925 205.17516Q91.26875 205.69078 91.45625 206.44078Q91.64375 207.19078 91.64375 208.47203Q91.64375 209.98766 91.33125 210.90953Q91.03438 211.8314 90.40938 212.34703Q89.8 212.84703 88.84688 212.84703Q87.6125 212.84703 86.89375 211.9564Q86.05 210.8939 86.05 208.47203ZM87.12813 208.47203Q87.12813 210.5814 87.62813 211.28453Q88.12813 211.98766 88.84688 211.98766Q89.58125 211.98766 90.06563 211.28453Q90.56563 210.5814 90.56563 208.47203Q90.56563 206.34703 90.06563 205.65953Q89.58125 204.9564 88.83125 204.9564Q88.1125 204.9564 87.675 205.56578Q87.12813 206.34703 87.12813 208.47203ZM93.05 208.47203Q93.05 206.94078 93.3625 206.0189Q93.675 205.0814 94.28438 204.5814Q94.90938 204.0814 95.84688 204.0814Q96.53438 204.0814 97.05 204.36266Q97.58125 204.6439 97.925 205.17516Q98.26875 205.69078 98.45625 206.44078Q98.64375 207.19078 98.64375 208.47203Q98.64375 209.98766 98.33125 210.90953Q98.03438 211.8314 97.40938 212.34703Q96.8 212.84703 95.84688 212.84703Q94.6125 212.84703 93.89375 211.9564Q93.05 210.8939 93.05 208.47203ZM94.12813 208.47203Q94.12813 210.5814 94.62813 211.28453Q95.12813 211.98766 95.84688 211.98766Q96.58125 211.98766 97.06563 211.28453Q97.56563 210.5814 97.56563 208.47203Q97.56563 206.34703 97.06563 205.65953Q96.58125 204.9564 95.83125 204.9564Q95.1125 204.9564 94.675 205.56578Q94.12813 206.34703 94.12813 208.47203Z" fill-rule="nonzero"/><path fill="#000000" d="M56.51875 169.5246L55.471874 169.60272Q55.33125 168.97772 55.08125 168.69647Q54.64375 168.24335 54.01875 168.24335Q53.51875 168.24335 53.128124 168.5246Q52.64375 168.8996 52.346874 169.60272Q52.065624 170.29022 52.05 171.57147Q52.425 170.99335 52.971874 170.7121Q53.534374 170.43085 54.14375 170.43085Q55.190624 170.43085 55.925 171.2121Q56.675 171.99335 56.675 173.2121Q56.675 174.0246 56.315624 174.72772Q55.971874 175.41522 55.3625 175.79022Q54.753124 176.1496 53.9875 176.1496Q52.659374 176.1496 51.83125 175.18085Q51.003124 174.2121 51.003124 171.99335Q51.003124 169.49335 51.925 168.36835Q52.721874 167.38397 54.08125 167.38397Q55.096874 167.38397 55.7375 167.9621Q56.39375 168.5246 56.51875 169.5246ZM52.221874 173.22772Q52.221874 173.7746 52.440624 174.2746Q52.675 174.75897 53.08125 175.0246Q53.503124 175.29022 53.971874 175.29022Q54.628124 175.29022 55.1125 174.75897Q55.596874 174.2121 55.596874 173.29022Q55.596874 172.3996 55.1125 171.88397Q54.64375 171.36835 53.925 171.36835Q53.20625 171.36835 52.70625 171.88397Q52.221874 172.3996 52.221874 173.22772ZM58.05 171.7746Q58.05 170.24335 58.3625 169.32147Q58.675 168.38397 59.284374 167.88397Q59.909374 167.38397 60.846874 167.38397Q61.534374 167.38397 62.05 167.66522Q62.58125 167.94647 62.925 168.47772Q63.26875 168.99335 63.45625 169.74335Q63.64375 170.49335 63.64375 171.7746Q63.64375 173.29022 63.33125 174.2121Q63.034374 175.13397 62.409374 175.6496Q61.8 176.1496 60.846874 176.1496Q59.6125 176.1496 58.89375 175.25897Q58.05 174.19647 58.05 171.7746ZM59.128124 171.7746Q59.128124 173.88397 59.628124 174.5871Q60.128124 175.29022 60.846874 175.29022Q61.58125 175.29022 62.065624 174.5871Q62.565624 173.88397 62.565624 171.7746Q62.565624 169.6496 62.065624 168.9621Q61.58125 168.25897 60.83125 168.25897Q60.1125 168.25897 59.675 168.86835Q59.128124 169.6496 59.128124 171.7746ZM65.05 171.7746Q65.05 170.24335 65.3625 169.32147Q65.675 168.38397 66.28438 167.88397Q66.90938 167.38397 67.84688 167.38397Q68.53438 167.38397 69.05 167.66522Q69.58125 167.94647 69.925 168.47772Q70.26875 168.99335 70.45625 169.74335Q70.64375 170.49335 70.64375 171.7746Q70.64375 173.29022 70.33125 174.2121Q70.03438 175.13397 69.40938 175.6496Q68.8 176.1496 67.84688 176.1496Q66.6125 176.1496 65.89375 175.25897Q65.05 174.19647 65.05 171.7746ZM66.12813 171.7746Q66.12813 173.88397 66.62813 174.5871Q67.12813 175.29022 67.84688 175.29022Q68.58125 175.29022 69.06563 174.5871Q69.56563 173.88397 69.56563 171.7746Q69.56563 169.6496 69.06563 168.9621Q68.58125 168.25897 67.83125 168.25897Q67.1125 168.25897 66.675 168.86835Q66.12813 169.6496 66.12813 171.7746ZM72.05 171.7746Q72.05 170.24335 72.3625 169.32147Q72.675 168.38397 73.28438 167.88397Q73.90938 167.38397 74.84688 167.38397Q75.53438 167.38397 76.05 167.66522Q76.58125 167.94647 76.925 168.47772Q77.26875 168.99335 77.45625 169.74335Q77.64375 170.49335 77.64375 171.7746Q77.64375 173.29022 77.33125 174.2121Q77.03438 175.13397 76.40938 175.6496Q75.8 176.1496 74.84688 176.1496Q73.6125 176.1496 72.89375 175.25897Q72.05 174.19647 72.05 171.7746ZM73.12813 171.7746Q73.12813 173.88397 73.62813 174.5871Q74.12813 175.29022 74.84688 175.29022Q75.58125 175.29022 76.06563 174.5871Q76.56563 173.88397 76.56563 171.7746Q76.56563 169.6496 76.06563 168.9621Q75.58125 168.25897 74.83125 168.25897Q74.1125 168.25897 73.675 168.86835Q73.12813 169.6496 73.12813 171.7746ZM79.05 171.7746Q79.05 170.24335 79.3625 169.32147Q79.675 168.38397 80.28438 167.88397Q80.90938 167.38397 81.84688 167.38397Q82.53438 167.38397 83.05 167.66522Q83.58125 167.94647 83.925 168.47772Q84.26875 168.99335 84.45625 169.74335Q84.64375 170.49335 84.64375 171.7746Q84.64375 173.29022 84.33125 174.2121Q84.03438 175.13397 83.40938 175.6496Q82.8 176.1496 81.84688 176.1496Q80.6125 176.1496 79.89375 175.25897Q79.05 174.19647 79.05 171.7746ZM80.12813 171.7746Q80.12813 173.88397 80.62813 174.5871Q81.12813 175.29022 81.84688 175.29022Q82.58125 175.29022 83.06563 174.5871Q83.56563 173.88397 83.56563 171.7746Q83.56563 169.6496 83.06563 168.9621Q82.58125 168.25897 81.83125 168.25897Q81.1125 168.25897 80.675 168.86835Q80.12813 169.6496 80.12813 171.7746ZM86.05 171.7746Q86.05 170.24335 86.3625 169.32147Q86.675 168.38397 87.28438 167.88397Q87.90938 167.38397 88.84688 167.38397Q89.53438 167.38397 90.05 167.66522Q90.58125 167.94647 90.925 168.47772Q91.26875 168.99335 91.45625 169.74335Q91.64375 170.49335 91.64375 171.7746Q91.64375 173.29022 91.33125 174.2121Q91.03438 175.13397 90.40938 175.6496Q89.8 176.1496 88.84688 176.1496Q87.6125 176.1496 86.89375 175.25897Q86.05 174.19647 86.05 171.7746ZM87.12813 171.7746Q87.12813 173.88397 87.62813 174.5871Q88.12813 175.29022 88.84688 175.29022Q89.58125 175.29022 90.06563 174.5871Q90.56563 173.88397 90.56563 171.7746Q90.56563 169.6496 90.06563 168.9621Q89.58125 168.25897 88.83125 168.25897Q88.1125 168.25897 87.675 168.86835Q87.12813 169.6496 87.12813 171.7746ZM93.05 171.7746Q93.05 170.24335 93.3625 169.32147Q93.675 168.38397 94.28438 167.88397Q94.90938 167.38397 95.84688 167.38397Q96.53438 167.38397 97.05 167.66522Q97.58125 167.94647 97.925 168.47772Q98.26875 168.99335 98.45625 169.74335Q98.64375 170.49335 98.64375 171.7746Q98.64375 173.29022 98.33125 174.2121Q98.03438 175.13397 97.40938 175.6496Q96.8 176.1496 95.84688 176.1496Q94.6125 176.1496 93.89375 175.25897Q93.05 174.19647 93.05 171.7746ZM94.12813 171.7746Q94.12813 173.88397 94.62813 174.5871Q95.12813 175.29022 95.84688 175.29022Q96.58125 175.29022 97.06563 174.5871Q97.56563 173.88397 97.56563 171.7746Q97.56563 169.6496 97.06563 168.9621Q96.58125 168.25897 95.83125 168.25897Q95.1125 168.25897 94.675 168.86835Q94.12813 169.6496 94.12813 171.7746Z" fill-rule="nonzero"/><path fill="#000000" d="M51.1125 131.84279L51.1125 130.82716L56.675 130.82716L56.675 131.65529Q55.8625 132.53029 55.05 133.98341Q54.253124 135.42091 53.815624 136.95216Q53.4875 138.03029 53.409374 139.31154L52.315624 139.31154Q52.33125 138.29591 52.70625 136.85841Q53.096874 135.42091 53.8 134.09279Q54.51875 132.76466 55.33125 131.84279L51.1125 131.84279ZM58.05 135.07716Q58.05 133.54591 58.3625 132.62404Q58.675 131.68654 59.284374 131.18654Q59.909374 130.68654 60.846874 130.68654Q61.534374 130.68654 62.05 130.96779Q62.58125 131.24904 62.925 131.78029Q63.26875 132.29591 63.45625 133.04591Q63.64375 133.79591 63.64375 135.07716Q63.64375 136.59279 63.33125 137.51466Q63.034374 138.43654 62.409374 138.95216Q61.8 139.45216 60.846874 139.45216Q59.6125 139.45216 58.89375 138.56154Q58.05 137.49904 58.05 135.07716ZM59.128124 135.07716Q59.128124 137.18654 59.628124 137.88966Q60.128124 138.59279 60.846874 138.59279Q61.58125 138.59279 62.065624 137.88966Q62.565624 137.18654 62.565624 135.07716Q62.565624 132.95216 62.065624 132.26466Q61.58125 131.56154 60.83125 131.56154Q60.1125 131.56154 59.675 132.17091Q59.128124 132.95216 59.128124 135.07716ZM65.05 135.07716Q65.05 133.54591 65.3625 132.62404Q65.675 131.68654 66.28438 131.18654Q66.90938 130.68654 67.84688 130.68654Q68.53438 130.68654 69.05 130.96779Q69.58125 131.24904 69.925 131.78029Q70.26875 132.29591 70.45625 133.04591Q70.64375 133.79591 70.64375 135.07716Q70.64375 136.59279 70.33125 137.51466Q70.03438 138.43654 69.40938 138.95216Q68.8 139.45216 67.84688 139.45216Q66.6125 139.45216 65.89375 138.56154Q65.05 137.49904 65.05 135.07716ZM66.12813 135.07716Q66.12813 137.18654 66.62813 137.88966Q67.12813 138.59279 67.84688 138.59279Q68.58125 138.59279 69.06563 137.88966Q69.56563 137.18654 69.56563 135.07716Q69.56563 132.95216 69.06563 132.26466Q68.58125 131.56154 67.83125 131.56154Q67.1125 131.56154 66.675 132.17091Q66.12813 132.95216 66.12813 135.07716ZM72.05 135.07716Q72.05 133.54591 72.3625 132.62404Q72.675 131.68654 73.28438 131.18654Q73.90938 130.68654 74.84688 130.68654Q75.53438 130.68654 76.05 130.96779Q76.58125 131.24904 76.925 131.78029Q77.26875 132.29591 77.45625 133.04591Q77.64375 133.79591 77.64375 135.07716Q77.64375 136.59279 77.33125 137.51466Q77.03438 138.43654 76.40938 138.95216Q75.8 139.45216 74.84688 139.45216Q73.6125 139.45216 72.89375 138.56154Q72.05 137.49904 72.05 135.07716ZM73.12813 135.07716Q73.12813 137.18654 73.62813 137.88966Q74.12813 138.59279 74.84688 138.59279Q75.58125 138.59279 76.06563 137.88966Q76.56563 137.18654 76.56563 135.07716Q76.56563 132.95216 76.06563 132.26466Q75.58125 131.56154 74.83125 131.56154Q74.1125 131.56154 73.675 132.17091Q73.12813 132.95216 73.12813 135.07716ZM79.05 135.07716Q79.05 133.54591 79.3625 132.62404Q79.675 131.68654 80.28438 131.18654Q80.90938 130.68654 81.84688 130.68654Q82.53438 130.68654 83.05 130.96779Q83.58125 131.24904 83.925 131.78029Q84.26875 132.29591 84.45625 133.04591Q84.64375 133.79591 84.64375 135.07716Q84.64375 136.59279 84.33125 137.51466Q84.03438 138.43654 83.40938 138.95216Q82.8 139.45216 81.84688 139.45216Q80.6125 139.45216 79.89375 138.56154Q79.05 137.49904 79.05 135.07716ZM80.12813 135.07716Q80.12813 137.18654 80.62813 137.88966Q81.12813 138.59279 81.84688 138.59279Q82.58125 138.59279 83.06563 137.88966Q83.56563 137.18654 83.56563 135.07716Q83.56563 132.95216 83.06563 132.26466Q82.58125 131.56154 81.83125 131.56154Q81.1125 131.56154 80.675 132.17091Q80.12813 132.95216 80.12813 135.07716ZM86.05 135.07716Q86.05 133.54591 86.3625 132.62404Q86.675 131.68654 87.28438 131.18654Q87.90938 130.68654 88.84688 130.68654Q89.53438 130.68654 90.05 130.96779Q90.58125 131.24904 90.925 131.78029Q91.26875 132.29591 91.45625 133.04591Q91.64375 133.79591 91.64375 135.07716Q91.64375 136.59279 91.33125 137.51466Q91.03438 138.43654 90.40938 138.95216Q89.8 139.45216 88.84688 139.45216Q87.6125 139.45216 86.89375 138.56154Q86.05 137.49904 86.05 135.07716ZM87.12813 135.07716Q87.12813 137.18654 87.62813 137.88966Q88.12813 138.59279 88.84688 138.59279Q89.58125 138.59279 90.06563 137.88966Q90.56563 137.18654 90.56563 135.07716Q90.56563 132.95216 90.06563 132.26466Q89.58125 131.56154 88.83125 131.56154Q88.1125 131.56154 87.675 132.17091Q87.12813 132.95216 87.12813 135.07716ZM93.05 135.07716Q93.05 133.54591 93.3625 132.62404Q93.675 131.68654 94.28438 131.18654Q94.90938 130.68654 95.84688 130.68654Q96.53438 130.68654 97.05 130.96779Q97.58125 131.24904 97.925 131.78029Q98.26875 132.29591 98.45625 133.04591Q98.64375 133.79591 98.64375 135.07716Q98.64375 136.59279 98.33125 137.51466Q98.03438 138.43654 97.40938 138.95216Q96.8 139.45216 95.84688 139.45216Q94.6125 139.45216 93.89375 138.56154Q93.05 137.49904 93.05 135.07716ZM94.12813 135.07716Q94.12813 137.18654 94.62813 137.88966Q95.12813 138.59279 95.84688 138.59279Q96.58125 138.59279 97.06563 137.88966Q97.56563 137.18654 97.56563 135.07716Q97.56563 132.95216 97.06563 132.26466Q96.58125 131.56154 95.83125 131.56154Q95.1125 131.56154 94.675 132.17091Q94.12813 132.95216 94.12813 135.07716Z" fill-rule="nonzero"/><path fill="#000000" d="M52.675 97.957855Q52.01875 97.707855 51.690624 97.270355Q51.378124 96.81723 51.378124 96.207855Q51.378124 95.270355 52.05 94.62973Q52.7375 93.989105 53.846874 93.989105Q54.971874 93.989105 55.659374 94.645355Q56.346874 95.301605 56.346874 96.239105Q56.346874 96.832855 56.034374 97.270355Q55.721874 97.707855 55.08125 97.957855Q55.878124 98.207855 56.284374 98.78598Q56.690624 99.364105 56.690624 100.16098Q56.690624 101.25473 55.909374 102.00473Q55.14375 102.75473 53.8625 102.75473Q52.596874 102.75473 51.815624 102.00473Q51.034374 101.25473 51.034374 100.12973Q51.034374 99.28598 51.45625 98.72348Q51.89375 98.16098 52.675 97.957855ZM52.45625 96.16098Q52.45625 96.770355 52.846874 97.16098Q53.253124 97.551605 53.878124 97.551605Q54.4875 97.551605 54.878124 97.176605Q55.26875 96.78598 55.26875 96.22348Q55.26875 95.645355 54.8625 95.25473Q54.45625 94.84848 53.8625 94.84848Q53.253124 94.84848 52.846874 95.239105Q52.45625 95.62973 52.45625 96.16098ZM52.128124 100.12973Q52.128124 100.582855 52.33125 101.00473Q52.55 101.426605 52.971874 101.66098Q53.39375 101.895355 53.878124 101.895355Q54.628124 101.895355 55.1125 101.41098Q55.6125 100.926605 55.6125 100.176605Q55.6125 99.41098 55.1125 98.91098Q54.6125 98.41098 53.846874 98.41098Q53.096874 98.41098 52.6125 98.91098Q52.128124 99.395355 52.128124 100.12973ZM58.05 98.37973Q58.05 96.84848 58.3625 95.926605Q58.675 94.989105 59.284374 94.489105Q59.909374 93.989105 60.846874 93.989105Q61.534374 93.989105 62.05 94.270355Q62.58125 94.551605 62.925 95.082855Q63.26875 95.59848 63.45625 96.34848Q63.64375 97.09848 63.64375 98.37973Q63.64375 99.895355 63.33125 100.81723Q63.034374 101.739105 62.409374 102.25473Q61.8 102.75473 60.846874 102.75473Q59.6125 102.75473 58.89375 101.864105Q58.05 100.801605 58.05 98.37973ZM59.128124 98.37973Q59.128124 100.489105 59.628124 101.19223Q60.128124 101.895355 60.846874 101.895355Q61.58125 101.895355 62.065624 101.19223Q62.565624 100.489105 62.565624 98.37973Q62.565624 96.25473 62.065624 95.56723Q61.58125 94.864105 60.83125 94.864105Q60.1125 94.864105 59.675 95.47348Q59.128124 96.25473 59.128124 98.37973ZM65.05 98.37973Q65.05 96.84848 65.3625 95.926605Q65.675 94.989105 66.28438 94.489105Q66.90938 93.989105 67.84688 93.989105Q68.53438 93.989105 69.05 94.270355Q69.58125 94.551605 69.925 95.082855Q70.26875 95.59848 70.45625 96.34848Q70.64375 97.09848 70.64375 98.37973Q70.64375 99.895355 70.33125 100.81723Q70.03438 101.739105 69.40938 102.25473Q68.8 102.75473 67.84688 102.75473Q66.6125 102.75473 65.89375 101.864105Q65.05 100.801605 65.05 98.37973ZM66.12813 98.37973Q66.12813 100.489105 66.62813 101.19223Q67.12813 101.895355 67.84688 101.895355Q68.58125 101.895355 69.06563 101.19223Q69.56563 100.489105 69.56563 98.37973Q69.56563 96.25473 69.06563 95.56723Q68.58125 94.864105 67.83125 94.864105Q67.1125 94.864105 66.675 95.47348Q66.12813 96.25473 66.12813 98.37973ZM72.05 98.37973Q72.05 96.84848 72.3625 95.926605Q72.675 94.989105 73.28438 94.489105Q73.90938 93.989105 74.84688 93.989105Q75.53438 93.989105 76.05 94.270355Q76.58125 94.551605 76.925 95.082855Q77.26875 95.59848 77.45625 96.34848Q77.64375 97.09848 77.64375 98.37973Q77.64375 99.895355 77.33125 100.81723Q77.03438 101.739105 76.40938 102.25473Q75.8 102.75473 74.84688 102.75473Q73.6125 102.75473 72.89375 101.864105Q72.05 100.801605 72.05 98.37973ZM73.12813 98.37973Q73.12813 100.489105 73.62813 101.19223Q74.12813 101.895355 74.84688 101.895355Q75.58125 101.895355 76.06563 101.19223Q76.56563 100.489105 76.56563 98.37973Q76.56563 96.25473 76.06563 95.56723Q75.58125 94.864105 74.83125 94.864105Q74.1125 94.864105 73.675 95.47348Q73.12813 96.25473 73.12813 98.37973ZM79.05 98.37973Q79.05 96.84848 79.3625 95.926605Q79.675 94.989105 80.28438 94.489105Q80.90938 93.989105 81.84688 93.989105Q82.53438 93.989105 83.05 94.270355Q83.58125 94.551605 83.925 95.082855Q84.26875 95.59848 84.45625 96.34848Q84.64375 97.09848 84.64375 98.37973Q84.64375 99.895355 84.33125 100.81723Q84.03438 101.739105 83.40938 102.25473Q82.8 102.75473 81.84688 102.75473Q80.6125 102.75473 79.89375 101.864105Q79.05 100.801605 79.05 98.37973ZM80.12813 98.37973Q80.12813 100.489105 80.62813 101.19223Q81.12813 101.895355 81.84688 101.895355Q82.58125 101.895355 83.06563 101.19223Q83.56563 100.489105 83.56563 98.37973Q83.56563 96.25473 83.06563 95.56723Q82.58125 94.864105 81.83125 94.864105Q81.1125 94.864105 80.675 95.47348Q80.12813 96.25473 80.12813 98.37973ZM86.05 98.37973Q86.05 96.84848 86.3625 95.926605Q86.675 94.989105 87.28438 94.489105Q87.90938 93.989105 88.84688 93.989105Q89.53438 93.989105 90.05 94.270355Q90.58125 94.551605 90.925 95.082855Q91.26875 95.59848 91.45625 96.34848Q91.64375 97.09848 91.64375 98.37973Q91.64375 99.895355 91.33125 100.81723Q91.03438 101.739105 90.40938 102.25473Q89.8 102.75473 88.84688 102.75473Q87.6125 102.75473 86.89375 101.864105Q86.05 100.801605 86.05 98.37973ZM87.12813 98.37973Q87.12813 100.489105 87.62813 101.19223Q88.12813 101.895355 88.84688 101.895355Q89.58125 101.895355 90.06563 101.19223Q90.56563 100.489105 90.56563 98.37973Q90.56563 96.25473 90.06563 95.56723Q89.58125 94.864105 88.83125 94.864105Q88.1125 94.864105 87.675 95.47348Q87.12813 96.25473 87.12813 98.37973ZM93.05 98.37973Q93.05 96.84848 93.3625 95.926605Q93.675 94.989105 94.28438 94.489105Q94.90938 93.989105 95.84688 93.989105Q96.53438 93.989105 97.05 94.270355Q97.58125 94.551605 97.925 95.082855Q98.26875 95.59848 98.45625 96.34848Q98.64375 97.09848 98.64375 98.37973Q98.64375 99.895355 98.33125 100.81723Q98.03438 101.739105 97.40938 102.25473Q96.8 102.75473 95.84688 102.75473Q94.6125 102.75473 93.89375 101.864105Q93.05 100.801605 93.05 98.37973ZM94.12813 98.37973Q94.12813 100.489105 94.62813 101.19223Q95.12813 101.895355 95.84688 101.895355Q96.58125 101.895355 97.06563 101.19223Q97.56563 100.489105 97.56563 98.37973Q97.56563 96.25473 97.06563 95.56723Q96.58125 94.864105 95.83125 94.864105Q95.1125 94.864105 94.675 95.47348Q94.12813 96.25473 94.12813 98.37973Z" fill-rule="nonzero"/><path fill="#000000" d="M51.20625 63.93229L52.221874 63.83854Q52.346874 64.55729 52.70625 64.885414Q53.08125 65.197914 53.64375 65.197914Q54.128124 65.197914 54.4875 64.979164Q54.8625 64.74479 55.096874 64.385414Q55.33125 64.010414 55.4875 63.385414Q55.64375 62.74479 55.64375 62.08854Q55.64375 62.010414 55.64375 61.86979Q55.33125 62.36979 54.784374 62.697914Q54.2375 63.010414 53.596874 63.010414Q52.51875 63.010414 51.784374 62.24479Q51.05 61.46354 51.05 60.197914Q51.05 58.885414 51.815624 58.08854Q52.596874 57.291664 53.753124 57.291664Q54.58125 57.291664 55.26875 57.74479Q55.971874 58.197914 56.33125 59.041664Q56.690624 59.86979 56.690624 61.447914Q56.690624 63.08854 56.33125 64.072914Q55.9875 65.041664 55.26875 65.55729Q54.565624 66.05729 53.628124 66.05729Q52.6125 66.05729 51.971874 65.510414Q51.33125 64.947914 51.20625 63.93229ZM55.51875 60.135414Q55.51875 59.229164 55.034374 58.697914Q54.565624 58.166664 53.878124 58.166664Q53.175 58.166664 52.64375 58.74479Q52.128124 59.30729 52.128124 60.229164Q52.128124 61.041664 52.628124 61.55729Q53.128124 62.072914 53.846874 62.072914Q54.58125 62.072914 55.05 61.55729Q55.51875 61.041664 55.51875 60.135414ZM58.05 61.68229Q58.05 60.15104 58.3625 59.229164Q58.675 58.291664 59.284374 57.791664Q59.909374 57.291664 60.846874 57.291664Q61.534374 57.291664 62.05 57.572914Q62.58125 57.854164 62.925 58.385414Q63.26875 58.90104 63.45625 59.65104Q63.64375 60.40104 63.64375 61.68229Q63.64375 63.197914 63.33125 64.11979Q63.034374 65.041664 62.409374 65.55729Q61.8 66.05729 60.846874 66.05729Q59.6125 66.05729 58.89375 65.166664Q58.05 64.104164 58.05 61.68229ZM59.128124 61.68229Q59.128124 63.791664 59.628124 64.49479Q60.128124 65.197914 60.846874 65.197914Q61.58125 65.197914 62.065624 64.49479Q62.565624 63.791664 62.565624 61.68229Q62.565624 59.55729 62.065624 58.86979Q61.58125 58.166664 60.83125 58.166664Q60.1125 58.166664 59.675 58.77604Q59.128124 59.55729 59.128124 61.68229ZM65.05 61.68229Q65.05 60.15104 65.3625 59.229164Q65.675 58.291664 66.28438 57.791664Q66.90938 57.291664 67.84688 57.291664Q68.53438 57.291664 69.05 57.572914Q69.58125 57.854164 69.925 58.385414Q70.26875 58.90104 70.45625 59.65104Q70.64375 60.40104 70.64375 61.68229Q70.64375 63.197914 70.33125 64.11979Q70.03438 65.041664 69.40938 65.55729Q68.8 66.05729 67.84688 66.05729Q66.6125 66.05729 65.89375 65.166664Q65.05 64.104164 65.05 61.68229ZM66.12813 61.68229Q66.12813 63.791664 66.62813 64.49479Q67.12813 65.197914 67.84688 65.197914Q68.58125 65.197914 69.06563 64.49479Q69.56563 63.791664 69.56563 61.68229Q69.56563 59.55729 69.06563 58.86979Q68.58125 58.166664 67.83125 58.166664Q67.1125 58.166664 66.675 58.77604Q66.12813 59.55729 66.12813 61.68229ZM72.05 61.68229Q72.05 60.15104 72.3625 59.229164Q72.675 58.291664 73.28438 57.791664Q73.90938 57.291664 74.84688 57.291664Q75.53438 57.291664 76.05 57.572914Q76.58125 57.854164 76.925 58.385414Q77.26875 58.90104 77.45625 59.65104Q77.64375 60.40104 77.64375 61.68229Q77.64375 63.197914 77.33125 64.11979Q77.03438 65.041664 76.40938 65.55729Q75.8 66.05729 74.84688 66.05729Q73.6125 66.05729 72.89375 65.166664Q72.05 64.104164 72.05 61.68229ZM73.12813 61.68229Q73.12813 63.791664 73.62813 64.49479Q74.12813 65.197914 74.84688 65.197914Q75.58125 65.197914 76.06563 64.49479Q76.56563 63.791664 76.56563 61.68229Q76.56563 59.55729 76.06563 58.86979Q75.58125 58.166664 74.83125 58.166664Q74.1125 58.166664 73.675 58.77604Q73.12813 59.55729 73.12813 61.68229ZM79.05 61.68229Q79.05 60.15104 79.3625 59.229164Q79.675 58.291664 80.28438 57.791664Q80.90938 57.291664 81.84688 57.291664Q82.53438 57.291664 83.05 57.572914Q83.58125 57.854164 83.925 58.385414Q84.26875 58.90104 84.45625 59.65104Q84.64375 60.40104 84.64375 61.68229Q84.64375 63.197914 84.33125 64.11979Q84.03438 65.041664 83.40938 65.55729Q82.8 66.05729 81.84688 66.05729Q80.6125 66.05729 79.89375 65.166664Q79.05 64.104164 79.05 61.68229ZM80.12813 61.68229Q80.12813 63.791664 80.62813 64.49479Q81.12813 65.197914 81.84688 65.197914Q82.58125 65.197914 83.06563 64.49479Q83.56563 63.791664 83.56563 61.68229Q83.56563 59.55729 83.06563 58.86979Q82.58125 58.166664 81.83125 58.166664Q81.1125 58.166664 80.675 58.77604Q80.12813 59.55729 80.12813 61.68229ZM86.05 61.68229Q86.05 60.15104 86.3625 59.229164Q86.675 58.291664 87.28438 57.791664Q87.90938 57.291664 88.84688 57.291664Q89.53438 57.291664 90.05 57.572914Q90.58125 57.854164 90.925 58.385414Q91.26875 58.90104 91.45625 59.65104Q91.64375 60.40104 91.64375 61.68229Q91.64375 63.197914 91.33125 64.11979Q91.03438 65.041664 90.40938 65.55729Q89.8 66.05729 88.84688 66.05729Q87.6125 66.05729 86.89375 65.166664Q86.05 64.104164 86.05 61.68229ZM87.12813 61.68229Q87.12813 63.791664 87.62813 64.49479Q88.12813 65.197914 88.84688 65.197914Q89.58125 65.197914 90.06563 64.49479Q90.56563 63.791664 90.56563 61.68229Q90.56563 59.55729 90.06563 58.86979Q89.58125 58.166664 88.83125 58.166664Q88.1125 58.166664 87.675 58.77604Q87.12813 59.55729 87.12813 61.68229ZM93.05 61.68229Q93.05 60.15104 93.3625 59.229164Q93.675 58.291664 94.28438 57.791664Q94.90938 57.291664 95.84688 57.291664Q96.53438 57.291664 97.05 57.572914Q97.58125 57.854164 97.925 58.385414Q98.26875 58.90104 98.45625 59.65104Q98.64375 60.40104 98.64375 61.68229Q98.64375 63.197914 98.33125 64.11979Q98.03438 65.041664 97.40938 65.55729Q96.8 66.05729 95.84688 66.05729Q94.6125 66.05729 93.89375 65.166664Q93.05 64.104164 93.05 61.68229ZM94.12813 61.68229Q94.12813 63.791664 94.62813 64.49479Q95.12813 65.197914 95.84688 65.197914Q96.58125 65.197914 97.06563 64.49479Q97.56563 63.791664 97.56563 61.68229Q97.56563 59.55729 97.06563 58.86979Q96.58125 58.166664 95.83125 58.166664Q95.1125 58.166664 94.675 58.77604Q94.12813 59.55729 94.12813 61.68229Z" fill-rule="nonzero"/><path fill="#000000" d="M108.09688 316.4344L108.09688 317.45L102.40938 317.45Q102.40938 317.075 102.53438 316.71564Q102.75313 316.1375 103.22188 315.575Q103.70625 315.0125 104.6125 314.27814Q106.01875 313.1219 106.50313 312.45Q107.00313 311.77814 107.00313 311.1844Q107.00313 310.5594 106.55 310.1375Q106.09688 309.7 105.37813 309.7Q104.6125 309.7 104.15938 310.15314Q103.70625 310.60626 103.69063 311.41876L102.6125 311.3094Q102.72188 310.09064 103.44063 309.46564Q104.175 308.825 105.40938 308.825Q106.64375 308.825 107.3625 309.5125Q108.08125 310.2 108.08125 311.21564Q108.08125 311.73126 107.8625 312.23126Q107.65938 312.71564 107.15938 313.27814Q106.675 313.825 105.55 314.77814Q104.59688 315.575 104.31563 315.8719Q104.05 316.15314 103.87813 316.4344L108.09688 316.4344Z" fill-rule="nonzero"/><path fill="#000000" d="M266.225 317.45L266.225 315.3875L262.50626 315.3875L262.50626 314.41876L266.42813 308.85626L267.2875 308.85626L267.2875 314.41876L268.44376 314.41876L268.44376 315.3875L267.2875 315.3875L267.2875 317.45L266.225 317.45ZM266.225 314.41876L266.225 310.5594L263.5375 314.41876L266.225 314.41876Z" fill-rule="nonzero"/><path fill="#000000" d="M428.61874 310.96564L427.57187 311.04376Q427.43124 310.41876 427.18124 310.1375Q426.74374 309.6844 426.11874 309.6844Q425.61874 309.6844 425.22812 309.96564Q424.74374 310.34064 424.44687 311.04376Q424.16562 311.73126 424.15 313.0125Q424.525 312.4344 425.07187 312.15314Q425.63437 311.8719 426.24374 311.8719Q427.29062 311.8719 428.025 312.65314Q428.775 313.4344 428.775 314.65314Q428.775 315.46564 428.41562 316.16876Q428.07187 316.85626 427.4625 317.23126Q426.85312 317.59064 426.0875 317.59064Q424.75937 317.59064 423.93124 316.6219Q423.10312 315.65314 423.10312 313.4344Q423.10312 310.9344 424.025 309.8094Q424.82187 308.825 426.18124 308.825Q427.19687 308.825 427.8375 309.40314Q428.49374 309.96564 428.61874 310.96564ZM424.32187 314.66876Q424.32187 315.21564 424.54062 315.71564Q424.775 316.2 425.18124 316.46564Q425.60312 316.73126 426.07187 316.73126Q426.72812 316.73126 427.2125 316.2Q427.69687 315.65314 427.69687 314.73126Q427.69687 313.84064 427.2125 313.325Q426.74374 312.8094 426.025 312.8094Q425.30624 312.8094 424.80624 313.325Q424.32187 313.84064 424.32187 314.66876Z" fill-rule="nonzero"/><path fill="#000000" d="M585.075 312.79376Q584.41876 312.54376 584.09064 312.10626Q583.77814 311.65314 583.77814 311.04376Q583.77814 310.10626 584.45 309.46564Q585.1375 308.825 586.2469 308.825Q587.3719 308.825 588.0594 309.48126Q588.7469 310.1375 588.7469 311.075Q588.7469 311.66876 588.4344 312.10626Q588.1219 312.54376 587.48126 312.79376Q588.27814 313.04376 588.6844 313.6219Q589.09064 314.2 589.09064 314.9969Q589.09064 316.09064 588.3094 316.84064Q587.54376 317.59064 586.2625 317.59064Q584.9969 317.59064 584.21564 316.84064Q583.4344 316.09064 583.4344 314.96564Q583.4344 314.1219 583.85626 313.5594Q584.29376 312.9969 585.075 312.79376ZM584.85626 310.9969Q584.85626 311.60626 585.2469 311.9969Q585.65314 312.3875 586.27814 312.3875Q586.8875 312.3875 587.27814 312.0125Q587.66876 311.6219 587.66876 311.0594Q587.66876 310.48126 587.2625 310.09064Q586.85626 309.6844 586.2625 309.6844Q585.65314 309.6844 585.2469 310.075Q584.85626 310.46564 584.85626 310.9969ZM584.52814 314.96564Q584.52814 315.41876 584.73126 315.84064Q584.95 316.2625 585.3719 316.4969Q585.79376 316.73126 586.27814 316.73126Q587.02814 316.73126 587.5125 316.2469Q588.0125 315.7625 588.0125 315.0125Q588.0125 314.2469 587.5125 313.7469Q587.0125 313.2469 586.2469 313.2469Q585.4969 313.2469 585.0125 313.7469Q584.52814 314.23126 584.52814 314.96564Z" fill-rule="nonzero"/><path fill="#757575" d="M20.128124 37.55L20.128124 23.2375L30.4875 23.2375L30.4875 24.925L22.034374 24.925L22.034374 29.3L29.940624 29.3L29.940624 30.9875L22.034374 30.9875L22.034374 35.8625L30.815624 35.8625L30.815624 37.55L20.128124 37.55ZM32.83125 37.55L32.83125 23.2375L34.58125 23.2375L34.58125 37.55L32.83125 37.55ZM38.4875 37.55L36.8625 37.55L36.8625 23.2375L38.6125 23.2375L38.6125 28.346874Q39.7375 26.940624 41.45625 26.940624Q42.409374 26.940624 43.26875 27.33125Q44.128124 27.721874 44.675 28.425Q45.221874 29.1125 45.534374 30.096874Q45.846874 31.08125 45.846874 32.20625Q45.846874 34.878124 44.534374 36.33125Q43.221874 37.784374 41.378124 37.784374Q39.534374 37.784374 38.4875 36.253124L38.4875 37.55ZM38.471874 32.284374Q38.471874 34.14375 38.971874 34.9875Q39.815624 36.33125 41.221874 36.33125Q42.378124 36.33125 43.20625 35.33125Q44.05 34.33125 44.05 32.346874Q44.05 30.315624 43.2375 29.3625Q42.440624 28.39375 41.3 28.39375Q40.14375 28.39375 39.3 29.39375Q38.471874 30.39375 38.471874 32.284374ZM47.221874 32.3625Q47.221874 29.4875 48.815624 28.096874Q50.159374 26.940624 52.08125 26.940624Q54.221874 26.940624 55.565624 28.346874Q56.925 29.753124 56.925 32.221874Q56.925 34.221874 56.33125 35.378124Q55.7375 36.51875 54.58125 37.159374Q53.440624 37.784374 52.08125 37.784374Q49.89375 37.784374 48.55 36.39375Q47.221874 34.9875 47.221874 32.3625ZM49.01875 32.3625Q49.01875 34.3625 49.878124 35.346874Q50.753124 36.33125 52.08125 36.33125Q53.39375 36.33125 54.253124 35.346874Q55.128124 34.346874 55.128124 32.3Q55.128124 30.378124 54.253124 29.39375Q53.378124 28.39375 52.08125 28.39375Q50.753124 28.39375 49.878124 29.39375Q49.01875 30.378124 49.01875 32.3625ZM60.784374 37.55L57.6125 27.175L59.425 27.175L61.08125 33.159374L61.690624 35.39375Q61.7375 35.221874 62.221874 33.253124L63.878124 27.175L65.69063 27.175L67.2375 33.190624L67.75313 35.175L68.34688 33.175L70.12813 27.175L71.83125 27.175L68.59688 37.55L66.76875 37.55L65.1125 31.33125L64.72188 29.565624L62.6125 37.55L60.784374 37.55ZM78.8625 37.55L78.8625 27.175L80.44063 27.175L80.44063 28.628124Q80.925 27.878124 81.7375 27.409374Q82.55 26.940624 83.58125 26.940624Q84.7375 26.940624 85.47188 27.425Q86.20625 27.89375 86.51875 28.753124Q87.75313 26.940624 89.72188 26.940624Q91.26875 26.940624 92.09688 27.8Q92.925 28.659374 92.925 30.425L92.925 37.55L91.175 37.55L91.175 31.01875Q91.175 29.95625 91.00313 29.503124Q90.83125 29.034374 90.37813 28.753124Q89.94063 28.471874 89.33125 28.471874Q88.2375 28.471874 87.50313 29.20625Q86.78438 29.925 86.78438 31.51875L86.78438 37.55L85.03438 37.55L85.03438 30.815624Q85.03438 29.64375 84.59688 29.065624Q84.175 28.471874 83.19063 28.471874Q82.45625 28.471874 81.81563 28.8625Q81.19063 29.253124 80.90938 30.003124Q80.62813 30.753124 80.62813 32.175L80.62813 37.55L78.8625 37.55ZM102.97188 34.20625L104.78438 34.440624Q104.3625 36.01875 103.19063 36.909374Q102.03438 37.784374 100.22188 37.784374Q97.95625 37.784374 96.6125 36.39375Q95.28438 34.9875 95.28438 32.45625Q95.28438 29.83125 96.62813 28.39375Q97.97188 26.940624 100.12813 26.940624Q102.20625 26.940624 103.51875 28.3625Q104.84688 29.76875 104.84688 32.346874Q104.84688 32.503124 104.83125 32.815624L97.09688 32.815624Q97.19063 34.51875 98.06563 35.425Q98.94063 36.33125 100.2375 36.33125Q101.20625 36.33125 101.87813 35.83125Q102.56563 35.315624 102.97188 34.20625ZM97.19063 31.3625L102.9875 31.3625Q102.87813 30.065624 102.33125 29.409374Q101.4875 28.39375 100.14375 28.39375Q98.94063 28.39375 98.1125 29.20625Q97.28438 30.003124 97.19063 31.3625ZM110.70625 35.971874L110.95625 37.534374Q110.22188 37.690624 109.62813 37.690624Q108.675 37.690624 108.14375 37.39375Q107.62813 37.08125 107.40938 36.596874Q107.19063 36.096874 107.19063 34.51875L107.19063 28.55L105.90938 28.55L105.90938 27.175L107.19063 27.175L107.19063 24.6125L108.94063 23.55L108.94063 27.175L110.70625 27.175L110.70625 28.55L108.94063 28.55L108.94063 34.6125Q108.94063 35.3625 109.03438 35.58125Q109.12813 35.784374 109.33125 35.925Q109.55 36.05 109.94063 36.05Q110.22188 36.05 110.70625 35.971874ZM112.8625 37.55L112.8625 23.2375L114.62813 23.2375L114.62813 28.3625Q115.8625 26.940624 117.7375 26.940624Q118.87813 26.940624 119.72188 27.39375Q120.58125 27.846874 120.94063 28.659374Q121.31563 29.45625 121.31563 30.971874L121.31563 37.55L119.56563 37.55L119.56563 30.971874Q119.56563 29.659374 118.9875 29.065624Q118.40938 28.45625 117.37813 28.45625Q116.59688 28.45625 115.89375 28.8625Q115.20625 29.26875 114.90938 29.971874Q114.62813 30.659374 114.62813 31.878124L114.62813 37.55L112.8625 37.55ZM123.22188 32.3625Q123.22188 29.4875 124.81563 28.096874Q126.15938 26.940624 128.08125 26.940624Q130.22188 26.940624 131.56563 28.346874Q132.925 29.753124 132.925 32.221874Q132.925 34.221874 132.33125 35.378124Q131.7375 36.51875 130.58125 37.159374Q129.44063 37.784374 128.08125 37.784374Q125.89375 37.784374 124.55 36.39375Q123.22188 34.9875 123.22188 32.3625ZM125.01875 32.3625Q125.01875 34.3625 125.87813 35.346874Q126.75313 36.33125 128.08125 36.33125Q129.39375 36.33125 130.25313 35.346874Q131.12813 34.346874 131.12813 32.3Q131.12813 30.378124 130.25313 29.39375Q129.37813 28.39375 128.08125 28.39375Q126.75313 28.39375 125.87813 29.39375Q125.01875 30.378124 125.01875 32.3625ZM141.59688 37.55L141.59688 36.2375Q140.6125 37.784374 138.69063 37.784374Q137.45625 37.784374 136.40938 37.096874Q135.37813 36.409374 134.8 35.190624Q134.2375 33.971874 134.2375 32.378124Q134.2375 30.815624 134.75313 29.55Q135.26875 28.284374 136.3 27.6125Q137.34688 26.940624 138.6125 26.940624Q139.55 26.940624 140.28438 27.346874Q141.01875 27.7375 141.4875 28.3625L141.4875 23.2375L143.22188 23.2375L143.22188 37.55L141.59688 37.55ZM136.03438 32.378124Q136.03438 34.3625 136.87813 35.346874Q137.72188 36.33125 138.8625 36.33125Q140.01875 36.33125 140.81563 35.39375Q141.62813 34.45625 141.62813 32.51875Q141.62813 30.39375 140.8 29.39375Q139.9875 28.39375 138.78438 28.39375Q137.6125 28.39375 136.81563 29.3625Q136.03438 30.315624 136.03438 32.378124ZM152.28438 37.55L152.28438 28.55L150.7375 28.55L150.7375 27.175L152.28438 27.175L152.28438 26.08125Q152.28438 25.034374 152.47188 24.51875Q152.72188 23.83125 153.3625 23.409374Q154.00313 22.9875 155.15938 22.9875Q155.90938 22.9875 156.8 23.159374L156.53438 24.690624Q155.9875 24.596874 155.50313 24.596874Q154.70625 24.596874 154.3625 24.940624Q154.03438 25.284374 154.03438 26.221874L154.03438 27.175L156.06563 27.175L156.06563 28.55L154.03438 28.55L154.03438 37.55L152.28438 37.55ZM157.22188 32.3625Q157.22188 29.4875 158.81563 28.096874Q160.15938 26.940624 162.08125 26.940624Q164.22188 26.940624 165.56563 28.346874Q166.925 29.753124 166.925 32.221874Q166.925 34.221874 166.33125 35.378124Q165.7375 36.51875 164.58125 37.159374Q163.44063 37.784374 162.08125 37.784374Q159.89375 37.784374 158.55 36.39375Q157.22188 34.9875 157.22188 32.3625ZM159.01875 32.3625Q159.01875 34.3625 159.87813 35.346874Q160.75313 36.33125 162.08125 36.33125Q163.39375 36.33125 164.25313 35.346874Q165.12813 34.346874 165.12813 32.3Q165.12813 30.378124 164.25313 29.39375Q163.37813 28.39375 162.08125 28.39375Q160.75313 28.39375 159.87813 29.39375Q159.01875 30.378124 159.01875 32.3625ZM168.84688 37.55L168.84688 27.175L170.425 27.175L170.425 28.753124Q171.03438 27.64375 171.55 27.3Q172.06563 26.940624 172.675 26.940624Q173.56563 26.940624 174.4875 27.503124L173.87813 29.14375Q173.2375 28.753124 172.59688 28.753124Q172.01875 28.753124 171.55 29.1125Q171.09688 29.45625 170.89375 30.065624Q170.6125 31.003124 170.6125 32.1125L170.6125 37.55L168.84688 37.55ZM181.22188 32.3625Q181.22188 29.4875 182.81563 28.096874Q184.15938 26.940624 186.08125 26.940624Q188.22188 26.940624 189.56563 28.346874Q190.925 29.753124 190.925 32.221874Q190.925 34.221874 190.33125 35.378124Q189.7375 36.51875 188.58125 37.159374Q187.44063 37.784374 186.08125 37.784374Q183.89375 37.784374 182.55 36.39375Q181.22188 34.9875 181.22188 32.3625ZM183.01875 32.3625Q183.01875 34.3625 183.87813 35.346874Q184.75313 36.33125 186.08125 36.33125Q187.39375 36.33125 188.25313 35.346874Q189.12813 34.346874 189.12813 32.3Q189.12813 30.378124 188.25313 29.39375Q187.37813 28.39375 186.08125 28.39375Q184.75313 28.39375 183.87813 29.39375Q183.01875 30.378124 183.01875 32.3625ZM192.8625 41.51875L192.8625 27.175L194.47188 27.175L194.47188 28.51875Q195.03438 27.7375 195.7375 27.346874Q196.45625 26.940624 197.47188 26.940624Q198.8 26.940624 199.81563 27.628124Q200.83125 28.315624 201.34688 29.565624Q201.87813 30.8 201.87813 32.284374Q201.87813 33.878124 201.3 35.159374Q200.7375 36.425 199.64375 37.1125Q198.55 37.784374 197.34688 37.784374Q196.47188 37.784374 195.76875 37.409374Q195.08125 37.034374 194.62813 36.471874L194.62813 41.51875L192.8625 41.51875ZM194.45625 32.425Q194.45625 34.425 195.26875 35.378124Q196.08125 36.33125 197.2375 36.33125Q198.40938 36.33125 199.2375 35.346874Q200.08125 34.3625 200.08125 32.26875Q200.08125 30.3 199.25313 29.315624Q198.44063 28.315624 197.31563 28.315624Q196.19063 28.315624 195.31563 29.378124Q194.45625 30.425 194.45625 32.425ZM207.70625 35.971874L207.95625 37.534374Q207.22188 37.690624 206.62813 37.690624Q205.675 37.690624 205.14375 37.39375Q204.62813 37.08125 204.40938 36.596874Q204.19063 36.096874 204.19063 34.51875L204.19063 28.55L202.90938 28.55L202.90938 27.175L204.19063 27.175L204.19063 24.6125L205.94063 23.55L205.94063 27.175L207.70625 27.175L207.70625 28.55L205.94063 28.55L205.94063 34.6125Q205.94063 35.3625 206.03438 35.58125Q206.12813 35.784374 206.33125 35.925Q206.55 36.05 206.94063 36.05Q207.22188 36.05 207.70625 35.971874ZM209.87813 25.253124L209.87813 23.2375L211.64375 23.2375L211.64375 25.253124L209.87813 25.253124ZM209.87813 37.55L209.87813 27.175L211.64375 27.175L211.64375 37.55L209.87813 37.55ZM213.8625 37.55L213.8625 27.175L215.44063 27.175L215.44063 28.628124Q215.925 27.878124 216.7375 27.409374Q217.55 26.940624 218.58125 26.940624Q219.7375 26.940624 220.47188 27.425Q221.20625 27.89375 221.51875 28.753124Q222.75313 26.940624 224.72188 26.940624Q226.26875 26.940624 227.09688 27.8Q227.925 28.659374 227.925 30.425L227.925 37.55L226.175 37.55L226.175 31.01875Q226.175 29.95625 226.00313 29.503124Q225.83125 29.034374 225.37813 28.753124Q224.94063 28.471874 224.33125 28.471874Q223.2375 28.471874 222.50313 29.20625Q221.78438 29.925 221.78438 31.51875L221.78438 37.55L220.03438 37.55L220.03438 30.815624Q220.03438 29.64375 219.59688 29.065624Q219.175 28.471874 218.19063 28.471874Q217.45625 28.471874 216.81563 28.8625Q216.19063 29.253124 215.90938 30.003124Q215.62813 30.753124 215.62813 32.175L215.62813 37.55L213.8625 37.55ZM237.64375 36.26875Q236.65938 37.096874 235.75313 37.440624Q234.84688 37.784374 233.81563 37.784374Q232.1125 37.784374 231.19063 36.95625Q230.26875 36.1125 230.26875 34.815624Q230.26875 34.05 230.6125 33.425Q230.97188 32.8 231.53438 32.425Q232.09688 32.034374 232.8 31.83125Q233.31563 31.70625 234.3625 31.565624Q236.4875 31.315624 237.4875 30.971874Q237.50313 30.6125 237.50313 30.503124Q237.50313 29.440624 237.00313 28.9875Q236.33125 28.39375 235.00313 28.39375Q233.75313 28.39375 233.15938 28.83125Q232.58125 29.26875 232.3 30.378124L230.58125 30.14375Q230.81563 29.034374 231.34688 28.3625Q231.87813 27.675 232.89375 27.315624Q233.90938 26.940624 235.25313 26.940624Q236.58125 26.940624 237.40938 27.253124Q238.2375 27.565624 238.62813 28.05Q239.01875 28.51875 239.175 29.2375Q239.26875 29.690624 239.26875 30.8625L239.26875 33.20625Q239.26875 35.659374 239.37813 36.315624Q239.4875 36.95625 239.83125 37.55L237.9875 37.55Q237.72188 37.003124 237.64375 36.26875ZM237.4875 32.346874Q236.53438 32.7375 234.6125 33.003124Q233.53438 33.159374 233.08125 33.3625Q232.64375 33.55 232.39375 33.925Q232.14375 34.3 232.14375 34.76875Q232.14375 35.471874 232.675 35.940624Q233.20625 36.409374 234.2375 36.409374Q235.25313 36.409374 236.03438 35.971874Q236.83125 35.51875 237.20625 34.753124Q237.4875 34.14375 237.4875 32.9875L237.4875 32.346874ZM241.83125 37.55L241.83125 23.2375L243.58125 23.2375L243.58125 37.55L241.83125 37.55ZM251.87813 37.55L251.87813 23.2375L253.64375 23.2375L253.64375 31.39375L257.8 27.175L260.0656 27.175L256.1125 31.01875L260.47186 37.55L258.3 37.55L254.87813 32.253124L253.64375 33.440624L253.64375 37.55L251.87813 37.55Z" fill-rule="nonzero"/></svg>