<svg xmlns="http://www.w3.org/2000/svg" xmlns:xlink="http://www.w3.org/1999/xlink">

<symbol id="github" fill-rule="evenodd" clip-rule="evenodd" stroke-linejoin="round" stroke-miterlimit="1.414"><path d="M8 0C3.58 0 0 3.582 0 8c0 3.535 2.292 6.533 5.47 7.59.4.075.547-.172.547-.385 0-.19-.007-.693-.01-1.36-2.226.483-2.695-1.073-2.695-1.073-.364-.924-.89-1.17-.89-1.17-.725-.496.056-.486.056-.486.803.056 1.225.824 1.225.824.714 1.223 1.873.87 2.33.665.072-.517.278-.87.507-1.07-1.777-.2-3.644-.888-3.644-3.953 0-.873.31-1.587.823-2.147-.09-.202-.36-1.015.07-2.117 0 0 .67-.215 2.2.82.64-.178 1.32-.266 2-.27.68.004 1.36.092 2 .27 1.52-1.035 2.19-.82 2.19-.82.43 1.102.16 1.915.08 2.117.51.56.82 1.274.82 2.147 0 3.073-1.87 3.75-3.65 3.947.28.24.54.73.54 1.48 0 1.07-.01 1.93-.01 2.19 0 .21.14.46.55.38C13.71 14.53 16 11.53 16 8c0-4.418-3.582-8-8-8"/></symbol>

<symbol id="soundcloud" fill-rule="evenodd" clip-rule="evenodd" stroke-linejoin="round" stroke-miterlimit="1.414"><path transform="scale(0.7)" d="M7 17.939h-1v-8.068c.308-.231.639-.429 1-.566v8.634zm3 0h1v-9.224c-.229.265-.443.548-.621.857l-.379-.184v8.551zm-2 0h1v-8.848c-.508-.079-.623-.05-1-.01v8.858zm-4 0h1v-7.02c-.312.458-.555.971-.692 1.535l-.308-.182v5.667zm-3-5.25c-.606.547-1 1.354-1 2.268 0 .914.394 1.721 1 2.268v-4.536zm18.879-.671c-.204-2.837-2.404-5.079-5.117-5.079-1.022 0-1.964.328-2.762.877v10.123h9.089c1.607 0 2.911-1.393 2.911-3.106 0-2.233-2.168-3.772-4.121-2.815zm-16.879-.027c-.302-.024-.526-.03-1 .122v5.689c.446.143.636.138 1 .138v-5.949z"/>
</symbol>

<symbol id="tumblr" fill-rule="evenodd" clip-rule="evenodd" stroke-linejoin="round" stroke-miterlimit="1.414"><path transform="scale(0.7)" d="M19.512 17.489l-.096-.068h-3.274c-.153 0-.16-.467-.163-.622v-5.714c0-.056.045-.101.101-.101h3.82c.056 0 .101-.045.101-.101v-5.766c0-.055-.045-.1-.101-.1h-3.803c-.055 0-.1-.045-.1-.101v-4.816c0-.055-.045-.1-.101-.1h-7.15c-.489 0-1.053.362-1.135 1.034-.341 2.778-1.882 4.125-4.276 4.925l-.267.089-.068.096v4.74c0 .056.045.101.1.101h2.9v6.156c0 4.66 3.04 6.859 9.008 6.859 2.401 0 5.048-.855 5.835-1.891l.157-.208-1.488-4.412zm.339 4.258c-.75.721-2.554 1.256-4.028 1.281l-.165.001c-4.849 0-5.682-3.701-5.682-5.889v-7.039c0-.056-.045-.101-.1-.101h-2.782c-.056 0-.101-.045-.101-.101l-.024-3.06.064-.092c2.506-.976 3.905-2.595 4.273-5.593.021-.167.158-.171.159-.171h3.447c.055 0 .101.045.101.101v4.816c0 .056.045.101.1.101h3.803c.056 0 .101.045.101.1v3.801c0 .056-.045.101-.101.101h-3.819c-.056 0-.097.045-.097.101v6.705c.023 1.438.715 2.167 2.065 2.167.544 0 1.116-.126 1.685-.344.053-.021.111.007.13.061l.995 2.95-.024.104z"/>
</symbol>

<symbol id="rss" fill-rule="evenodd" clip-rule="evenodd" stroke-linejoin="round" stroke-miterlimit="1.414"><path d="M12.8 16C12.8 8.978 7.022 3.2 0 3.2V0c8.777 0 16 7.223 16 16h-3.2zM2.194 11.61c1.21 0 2.195.985 2.195 2.196 0 1.21-.99 2.194-2.2 2.194C.98 16 0 15.017 0 13.806c0-1.21.983-2.195 2.194-2.195zM10.606 16h-3.11c0-4.113-3.383-7.497-7.496-7.497v-3.11c5.818 0 10.606 4.79 10.606 10.607z"/></symbol>

</svg>
